<mxfile host="app.diagrams.net" modified="2023-07-31T05:58:18.025Z" agent="Mozilla/5.0 (Macintosh; Intel Mac OS X 10_15_7) AppleWebKit/537.36 (KHTML, like Gecko) Chrome/115.0.0.0 Safari/537.36" version="21.6.2" etag="el2DNe2U2kU_LIo1llop" type="github">
  <diagram name="Page-1" id="0YQ6mQw_Uy82QeGSYbv-">
    <mxGraphModel>
      <root>
        <mxCell id="0" />
        <mxCell id="1" parent="0" />
      </root>
    </mxGraphModel>
  </diagram>
</mxfile>
